<svg width="316" height="461" viewBox="0 0 316 461" fill="none" xmlns="http://www.w3.org/2000/svg">
<path fill-rule="evenodd" clip-rule="evenodd" d="M156.955 67.258L135.176 134.081C146.896 130.696 159.282 128.881 172.093 128.881C175.623 128.881 179.122 129.019 182.583 129.29L156.955 67.258ZM90.0585 157.252C90.208 156.372 90.4226 155.495 90.7053 154.627L136.886 12.9338C137.978 9.58081 139.942 6.82488 142.434 4.82728C143.932 3.34696 145.737 2.12669 147.804 1.2727C156.348 -2.2572 166.136 1.80752 169.666 10.3515L222.774 138.898C270.952 158.814 304.851 206.268 304.851 261.64C304.851 291.136 295.233 318.385 278.96 340.421L308.713 369.376C317.405 377.834 317.594 391.737 309.136 400.429C300.677 409.12 286.775 409.309 278.083 400.851L247.398 370.989C226 385.753 200.056 394.399 172.093 394.399C129.391 394.399 91.3983 374.238 67.1132 342.916L41.5615 421.315L269.647 424.787C279.581 424.938 287.03 433.093 286.284 443C285.538 452.908 276.879 460.817 266.945 460.665L19.5937 456.9C13.959 456.815 9.12395 454.154 6.13034 450.06C0.87302 445.104 -1.4204 437.293 0.908623 430.147L43.0799 300.754C43.4164 299.722 43.8354 298.746 44.327 297.832C41.0744 286.326 39.334 274.186 39.334 261.64C39.334 219.284 59.1696 181.56 90.0585 157.252ZM172.527 359.69C227.876 359.69 272.746 315.598 272.746 261.206C272.746 206.815 227.876 162.722 172.527 162.722C117.177 162.722 72.3068 206.815 72.3068 261.206C72.3068 315.598 117.177 359.69 172.527 359.69ZM167.322 218.331C167.322 236.547 167.322 246.024 162.587 250.956C157.451 256.305 146.744 256.305 124.423 256.305C107.104 256.305 106.838 268.339 124.423 268.339C147.766 268.339 158.407 268.339 163.258 273.638C167.322 278.078 167.322 286.237 167.322 301.232C167.322 324.764 175.848 324.764 175.848 301.232C175.848 268.339 175.848 268.011 217.947 268.339C239.529 268.507 240.062 256.305 217.947 256.305C196.901 256.305 186.649 256.305 181.656 251.181C176.914 246.315 176.914 236.828 176.914 218.331C176.914 194.798 167.322 195.333 167.322 218.331Z" fill="#b1e5be"/>
<path fill-rule="evenodd" clip-rule="evenodd" d="M156.955 67.258L135.176 134.081C146.896 130.696 159.282 128.881 172.093 128.881C175.623 128.881 179.122 129.019 182.583 129.29L156.955 67.258ZM90.0585 157.252C90.208 156.372 90.4226 155.495 90.7053 154.627L136.886 12.9338C137.978 9.58081 139.942 6.82488 142.434 4.82728C143.932 3.34696 145.737 2.12669 147.804 1.2727C156.348 -2.2572 166.136 1.80752 169.666 10.3515L222.774 138.898C270.952 158.814 304.851 206.268 304.851 261.64C304.851 291.136 295.233 318.385 278.96 340.421L308.713 369.376C317.405 377.834 317.594 391.737 309.136 400.429C300.677 409.12 286.775 409.309 278.083 400.851L247.398 370.989C226 385.753 200.056 394.399 172.093 394.399C129.391 394.399 91.3983 374.238 67.1132 342.916L41.5615 421.315L269.647 424.787C279.581 424.938 287.03 433.093 286.284 443C285.538 452.908 276.879 460.817 266.945 460.665L19.5937 456.9C13.959 456.815 9.12395 454.154 6.13034 450.06C0.87302 445.104 -1.4204 437.293 0.908623 430.147L43.0799 300.754C43.4164 299.722 43.8354 298.746 44.327 297.832C41.0744 286.326 39.334 274.186 39.334 261.64C39.334 219.284 59.1696 181.56 90.0585 157.252ZM172.527 359.69C227.876 359.69 272.746 315.598 272.746 261.206C272.746 206.815 227.876 162.722 172.527 162.722C117.177 162.722 72.3068 206.815 72.3068 261.206C72.3068 315.598 117.177 359.69 172.527 359.69ZM167.322 218.331C167.322 236.547 167.322 246.024 162.587 250.956C157.451 256.305 146.744 256.305 124.423 256.305C107.104 256.305 106.838 268.339 124.423 268.339C147.766 268.339 158.407 268.339 163.258 273.638C167.322 278.078 167.322 286.237 167.322 301.232C167.322 324.764 175.848 324.764 175.848 301.232C175.848 268.339 175.848 268.011 217.947 268.339C239.529 268.507 240.062 256.305 217.947 256.305C196.901 256.305 186.649 256.305 181.656 251.181C176.914 246.315 176.914 236.828 176.914 218.331C176.914 194.798 167.322 195.333 167.322 218.331Z" fill="#b1e5be"/>
</svg>
